<svg xmlns="http://www.w3.org/2000/svg" viewBox="0 0 1280 720" font-family="Segoe UI, -apple-system, sans-serif">
  <rect width="1280" height="720" fill="#0f172a"/>
  <rect x="0" y="0" width="220" height="720" fill="#1e293b"/>
  <rect x="16" y="16" width="188" height="36" rx="6" fill="#3b82f6"/><text x="36" y="40" fill="#fff" font-size="14" font-weight="700">SCAI Platform</text>
  <rect x="16" y="220" width="188" height="32" rx="4" fill="#3b82f6"/><text x="40" y="241" fill="#fff" font-size="12">📈 AI Forecast</text>
  <text x="260" y="52" fill="#f1f5f9" font-size="20" font-weight="700">AI Demand Forecast</text>
  <rect x="1090" y="20" width="170" height="36" rx="6" fill="#6366f1"/><text x="1175" y="43" text-anchor="middle" fill="#fff" font-size="13">🤖 Run AI Forecast</text>
  <rect x="250" y="80" width="300" height="100" rx="8" fill="#1e293b" stroke="#334155" stroke-width="1"/><text x="270" y="108" fill="#f1f5f9" font-size="13" font-weight="600">Forecast Accuracy</text><text x="520" y="113" text-anchor="end" fill="#22c55e" font-size="28" font-weight="700">94.2%</text><text x="270" y="140" fill="#64748b" font-size="11">Actual vs predicted: +2.1%</text><text x="270" y="160" fill="#64748b" font-size="11">RMSE: 1.24</text>
  <rect x="570" y="80" width="300" height="100" rx="8" fill="#1e293b" stroke="#334155" stroke-width="1"/><text x="590" y="108" fill="#f1f5f9" font-size="13" font-weight="600">Predicted Demand (Next Q)</text><text x="840" y="113" text-anchor="end" fill="#f1f5f9" font-size="28" font-weight="700">45.2K</text><text x="590" y="140" fill="#64748b" font-size="11">Units projected</text><text x="590" y="160" fill="#64748b" font-size="11">vs last Q: +8.3%</text>
  <rect x="890" y="80" width="370" height="100" rx="8" fill="#1e293b" stroke="#334155" stroke-width="1"/><text x="910" y="108" fill="#f1f5f9" font-size="13" font-weight="600">AI Model Status</text><text x="910" y="140" fill="#a78bfa" font-size="12">🟢 Prophet model: Active</text><text x="910" y="160" fill="#a78bfa" font-size="12">🟡 LSTM model: Training (72%)</text>
  <!-- Forecast chart -->
  <rect x="250" y="200" width="700" height="280" rx="8" fill="#1e293b" stroke="#334155" stroke-width="1"/>
  <text x="270" y="228" fill="#f1f5f9" font-size="14" font-weight="600">Demand Forecast - Next 6 Months</text>
  <rect x="270" y="240" width="660" height="1" fill="#334155"/>
  <rect x="270" y="260" width="660" height="200" fill="#0f172a" rx="4"/>
  <!-- Chart bars -->
  <rect x="300" y="380" width="30" height="40" rx="2" fill="#3b82f6" opacity="0.7"/>
  <rect x="345" y="360" width="30" height="60" rx="2" fill="#3b82f6" opacity="0.7"/>
  <rect x="390" y="340" width="30" height="80" rx="2" fill="#3b82f6" opacity="0.7"/>
  <rect x="435" y="320" width="30" height="100" rx="2" fill="#3b82f6" opacity="0.7"/>
  <rect x="480" y="310" width="30" height="110" rx="2" fill="#3b82f6"/>
  <rect x="525" y="290" width="30" height="130" rx="2" fill="#6366f1"/>
  <rect x="570" y="280" width="30" height="140" rx="2" fill="#6366f1"/>
  <rect x="615" y="275" width="30" height="145" rx="2" fill="#8b5cf6"/>
  <rect x="660" y="285" width="30" height="135" rx="2" fill="#8b5cf6" opacity="0.8"/>
  <rect x="705" y="300" width="30" height="120" rx="2" fill="#8b5cf6" opacity="0.6"/>
  <rect x="750" y="310" width="30" height="110" rx="2" fill="#8b5cf6" opacity="0.5"/>
  <rect x="795" y="320" width="30" height="100" rx="2" fill="#8b5cf6" opacity="0.4"/>
  <!-- Labels -->
  <text x="315" y="425" text-anchor="middle" fill="#64748b" font-size="9">Jan</text>
  <text x="360" y="425" text-anchor="middle" fill="#64748b" font-size="9">Feb</text>
  <text x="405" y="425" text-anchor="middle" fill="#64748b" font-size="9">Mar</text>
  <text x="450" y="425" text-anchor="middle" fill="#64748b" font-size="9">Apr</text>
  <text x="495" y="425" text-anchor="middle" fill="#64748b" font-size="9">May</text>
  <text x="540" y="425" text-anchor="middle" fill="#64748b" font-size="9">Jun</text>
  <text x="585" y="425" text-anchor="middle" fill="#64748b" font-size="9">Jul</text>
  <text x="630" y="425" text-anchor="middle" fill="#64748b" font-size="9">Aug</text>
  <text x="675" y="425" text-anchor="middle" fill="#64748b" font-size="9">Sep</text>
  <text x="720" y="425" text-anchor="middle" fill="#64748b" font-size="9">Oct</text>
  <text x="765" y="425" text-anchor="middle" fill="#64748b" font-size="9">Nov</text>
  <text x="810" y="425" text-anchor="middle" fill="#64748b" font-size="9">Dec</text>
  <text x="280" y="380" fill="#64748b" font-size="9">2K</text>
  <text x="280" y="310" fill="#64748b" font-size="9">4K</text>
  <text x="280" y="270" fill="#64748b" font-size="9">6K</text>
  <text x="300" y="450" fill="#3b82f6" font-size="10">● Historical</text>
  <text x="420" y="450" fill="#8b5cf6" font-size="10">● AI Predicted</text>
  <text x="560" y="450" fill="#64748b" font-size="10">● Confidence Interval</text>
  <!-- AI Insights panel -->
  <rect x="970" y="200" width="290" height="280" rx="8" fill="#1e293b" stroke="#6366f1" stroke-width="1"/>
  <text x="990" y="228" fill="#a78bfa" font-size="13" font-weight="600">🤖 AI Insights</text>
  <rect x="990" y="240" width="250" height="1" fill="#334155"/>
  <text x="990" y="268" fill="#64748b" font-size="12">• Peak demand expected in August (6,200 units)</text>
  <text x="990" y="290" fill="#64748b" font-size="12">• Seasonal pattern detected: +35% in Q3</text>
  <text x="990" y="312" fill="#64748b" font-size="12">• Recommend increasing inventory by 25%</text>
  <text x="990" y="334" fill="#64748b" font-size="12">• Supplier capacity: 92% utilized</text>
  <text x="990" y="356" fill="#64748b" font-size="12">• Price elasticity: -1.2 (sensitive)</text>
  <text x="990" y="390" fill="#f59e0b" font-size="12">⚠ Risk: Supply shortage in Jul-Aug</text>
  <text x="990" y="420" fill="#22c55e" font-size="12">✓ Opportunity: Expand warehouse capacity</text>
  <rect x="990" y="450" width="250" height="30" rx="4" fill="#6366f1"/><text x="1115" y="470" text-anchor="middle" fill="#fff" font-size="12">Generate Action Plan</text>
  <!-- Top products forecast -->
  <rect x="250" y="500" width="460" height="100" rx="8" fill="#1e293b" stroke="#334155" stroke-width="1"/>
  <text x="270" y="528" fill="#f1f5f9" font-size="14" font-weight="600">Top Products by Forecast Growth</text>
  <text x="270" y="558" fill="#f1f5f9" font-size="12">1. Laptop Pro 15" <tspan fill="#22c55e">+45%</tspan></text>
  <text x="270" y="578" fill="#f1f5f9" font-size="12">2. Microchip X1 <tspan fill="#22c55e">+32%</tspan></text>
  <text x="600" y="558" fill="#f1f5f9" font-size="12">3. Steel Rods 12mm <tspan fill="#f59e0b">-8%</tspan></text>
  <text x="600" y="578" fill="#f1f5f9" font-size="12">4. Packaging Box L <tspan fill="#22c55e">+12%</tspan></text>
  <!-- Model comparison -->
  <rect x="730" y="500" width="530" height="100" rx="8" fill="#1e293b" stroke="#334155" stroke-width="1"/>
  <text x="750" y="528" fill="#f1f5f9" font-size="14" font-weight="600">Forecast Model Comparison</text>
  <rect x="750" y="542" width="490" height="1" fill="#334155"/>
  <text x="750" y="565" fill="#f1f5f9" font-size="12">Prophet (Facebook) <tspan fill="#22c55e">94.2% accuracy</tspan></text>
  <text x="750" y="585" fill="#f1f5f9" font-size="12">LSTM (Deep Learning) <tspan fill="#f59e0b">Training (72%)</tspan></text>
</svg>