<svg xmlns="http://www.w3.org/2000/svg" viewBox="0 0 1280 720" font-family="Segoe UI, -apple-system, sans-serif">
  <defs><linearGradient id="bg" x1="0%" y1="0%" x2="100%" y2="100%"><stop offset="0%" style="stop-color:#0f172a"/><stop offset="100%" style="stop-color:#1e293b"/></linearGradient></defs>
  <rect width="1280" height="720" fill="url(#bg)"/>
  <!-- Sidebar -->
  <rect x="0" y="0" width="240" height="720" fill="#1e293b"/><rect x="0" y="0" width="240" height="720" fill="#1e293b" opacity="0.8"/>
  <rect x="16" y="16" width="208" height="40" rx="6" fill="#3b82f6"/>
  <text x="40" y="42" fill="#fff" font-size="16" font-weight="700">SCAI Platform</text>
  <rect x="16" y="72" width="208" height="1" fill="#334155"/>
  <rect x="16" y="88" width="208" height="36" rx="6" fill="#3b82f6"/><text x="44" y="111" fill="#fff" font-size="13">📊 Dashboard</text>
  <rect x="16" y="132" width="208" height="36" rx="6" fill="transparent"/><text x="44" y="155" fill="#94a3b8" font-size="13">🏭 Suppliers</text>
  <rect x="16" y="176" width="208" height="36" rx="6" fill="transparent"/><text x="44" y="199" fill="#94a3b8" font-size="13">📦 Products</text>
  <rect x="16" y="220" width="208" height="36" rx="6" fill="transparent"/><text x="44" y="243" fill="#94a3b8" font-size="13">📊 Inventory</text>
  <rect x="16" y="264" width="208" height="36" rx="6" fill="transparent"/><text x="44" y="287" fill="#94a3b8" font-size="13">📋 Orders</text>
  <rect x="16" y="308" width="208" height="36" rx="6" fill="transparent"/><text x="44" y="331" fill="#94a3b8" font-size="13">🚚 Shipments</text>
  <rect x="16" y="352" width="208" height="1" fill="#334155"/>
  <rect x="16" y="368" width="208" height="36" rx="6" fill="#6366f1"/><text x="44" y="391" fill="#fff" font-size="13">🤖 AI RAG Search</text>
  <rect x="16" y="412" width="208" height="36" rx="6" fill="#8b5cf6"/><text x="44" y="435" fill="#fff" font-size="13">🔧 Admin Panel</text>
  <!-- Header -->
  <rect x="240" y="0" width="1040" height="56" fill="#1e293b"/>
  <text x="270" y="34" fill="#f1f5f9" font-size="20" font-weight="700">Dashboard</text>
  <rect x="1100" y="12" width="36" height="36" rx="18" fill="#334155"/>
  <circle cx="1118" cy="30" r="18" fill="#3b82f6"/><text x="1118" y="36" text-anchor="middle" fill="#fff" font-size="12" font-weight="700">A</text>
  <!-- KPI Cards -->
  <rect x="260" y="72" width="235" height="120" rx="8" fill="#1e293b" stroke="#334155" stroke-width="1"/>
  <text x="280" y="100" fill="#f1f5f9" font-size="13" font-weight="600">Total Orders</text><text x="460" y="105" text-anchor="end" fill="#f1f5f9" font-size="28" font-weight="700">1,247</text>
  <rect x="280" y="118" width="60" height="24" rx="4" fill="#22c55e" opacity="0.2"/><text x="310" y="135" text-anchor="middle" fill="#22c55e" font-size="11" font-weight="600">+12.5%</text>
  <text x="280" y="155" fill="#64748b" font-size="11">vs last month: 1,108</text>
  <text x="280" y="175" fill="#64748b" font-size="11">📈 Revenue: $1.2M</text>
  <rect x="510" y="72" width="235" height="120" rx="8" fill="#1e293b" stroke="#334155" stroke-width="1"/>
  <text x="530" y="100" fill="#f1f5f9" font-size="13" font-weight="600">Active Suppliers</text><text x="710" y="105" text-anchor="end" fill="#f1f5f9" font-size="28" font-weight="700">89</text>
  <rect x="530" y="118" width="55" height="24" rx="4" fill="#22c55e" opacity="0.2"/><text x="557" y="135" text-anchor="middle" fill="#22c55e" font-size="11" font-weight="600">+3 new</text>
  <text x="530" y="155" fill="#64748b" font-size="11">Pending approvals: 12</text>
  <text x="530" y="175" fill="#64748b" font-size="11">⭐ Avg rating: 4.2/5</text>
  <rect x="760" y="72" width="235" height="120" rx="8" fill="#1e293b" stroke="#334155" stroke-width="1"/>
  <text x="780" y="100" fill="#f1f5f9" font-size="13" font-weight="600">Inventory Value</text><text x="960" y="105" text-anchor="end" fill="#f1f5f9" font-size="28" font-weight="700">$8.3M</text>
  <rect x="780" y="118" width="50" height="24" rx="4" fill="#f59e0b" opacity="0.2"/><text x="805" y="135" text-anchor="middle" fill="#f59e0b" font-size="11" font-weight="600">-2.1%</text>
  <text x="780" y="155" fill="#64748b" font-size="11">Items in stock: 12,450</text>
  <text x="780" y="175" fill="#64748b" font-size="11">⚠ Low stock alerts: 23</text>
  <rect x="1010" y="72" width="250" height="120" rx="8" fill="#1e293b" stroke="#334155" stroke-width="1"/>
  <text x="1030" y="100" fill="#f1f5f9" font-size="13" font-weight="600">AI Insights</text>
  <text x="1030" y="130" fill="#a78bfa" font-size="12">🤖 RAG queries today: 45</text>
  <text x="1030" y="150" fill="#a78bfa" font-size="12">🎯 Model accuracy: 94.2%</text>
  <text x="1030" y="170" fill="#a78bfa" font-size="12">⚡ Latency: 120ms avg</text>
  <!-- Charts area -->
  <rect x="260" y="208" width="500" height="240" rx="8" fill="#1e293b" stroke="#334155" stroke-width="1"/>
  <text x="280" y="236" fill="#f1f5f9" font-size="15" font-weight="600">Revenue Trend</text>
  <rect x="280" y="255" width="460" height="1" fill="#334155"/>
  <polyline points="300,380 360,360 420,370 480,340 540,350 600,310 660,320 720,280" fill="none" stroke="#3b82f6" stroke-width="2"/>
  <polyline points="300,400 360,390 420,395 480,375 540,380 600,360 660,355 720,340" fill="none" stroke="#22c55e" stroke-width="2"/>
  <text x="290" y="415" fill="#3b82f6" font-size="10">● Revenue</text><text x="350" y="415" fill="#22c55e" font-size="10">● Orders</text>
  <!-- Recent orders table -->
  <rect x="775" y="208" width="485" height="240" rx="8" fill="#1e293b" stroke="#334155" stroke-width="1"/>
  <text x="795" y="236" fill="#f1f5f9" font-size="15" font-weight="600">Recent Purchase Orders</text>
  <rect x="795" y="255" width="445" height="1" fill="#334155"/>
  <text x="800" y="278" fill="#f1f5f9" font-size="12" font-weight="600">PO-2024-001</text><text x="1060" y="278" text-anchor="end" fill="#f1f5f9" font-size="12">$45,000</text>
  <text x="800" y="296" fill="#64748b" font-size="11">TechCorp Inc. · Electronics</text>
  <rect x="1100" y="266" width="60" height="20" rx="4" fill="#22c55e" opacity="0.2"/><text x="1130" y="281" text-anchor="middle" fill="#22c55e" font-size="10">Completed</text>
  <rect x="800" y="304" width="445" height="1" fill="#334155"/>
  <text x="800" y="328" fill="#f1f5f9" font-size="12" font-weight="600">PO-2024-002</text><text x="1060" y="328" text-anchor="end" fill="#f1f5f9" font-size="12">$128,500</text>
  <text x="800" y="346" fill="#64748b" font-size="11">LogiShip Co. · Logistics</text>
  <rect x="1100" y="316" width="60" height="20" rx="4" fill="#3b82f6" opacity="0.2"/><text x="1130" y="331" text-anchor="middle" fill="#3b82f6" font-size="10">In Progress</text>
  <rect x="800" y="354" width="445" height="1" fill="#334155"/>
  <text x="800" y="378" fill="#f1f5f9" font-size="12" font-weight="600">PO-2024-003</text><text x="1060" y="378" text-anchor="end" fill="#f1f5f9" font-size="12">$22,800</text>
  <text x="800" y="396" fill="#64748b" font-size="11">RawMats Ltd. · Raw Materials</text>
  <rect x="1100" y="366" width="60" height="20" rx="4" fill="#f59e0b" opacity="0.2"/><text x="1130" y="381" text-anchor="middle" fill="#f59e0b" font-size="10">Pending</text>
  <!-- Bottom area -->
  <rect x="260" y="464" width="350" height="120" rx="8" fill="#1e293b" stroke="#334155" stroke-width="1"/>
  <text x="280" y="492" fill="#f1f5f9" font-size="13" font-weight="600">🔔 Recent Notifications</text>
  <text x="280" y="518" fill="#64748b" font-size="12">• PO-2024-002 approved by John</text>
  <text x="280" y="538" fill="#64748b" font-size="12">• Inventory reorder triggered for SKU-123</text>
  <text x="280" y="558" fill="#64748b" font-size="12">• Supplier rating updated for TechCorp</text>
  <rect x="625" y="464" width="350" height="120" rx="8" fill="#1e293b" stroke="#334155" stroke-width="1"/>
  <text x="645" y="492" fill="#f1f5f9" font-size="13" font-weight="600">🤖 AI Assistant</text>
  <text x="645" y="518" fill="#64748b" font-size="12">"What's the status of PO-2024-002?"</text>
  <rect x="645" y="530" width="310" height="40" rx="6" fill="#334155" opacity="0.5"/>
  <text x="660" y="555" fill="#a78bfa" font-size="12">PO-2024-002 is In Progress with LogiShip Co.</text>
  <rect x="990" y="464" width="270" height="120" rx="8" fill="#1e293b" stroke="#334155" stroke-width="1"/>
  <text x="1010" y="492" fill="#f1f5f9" font-size="13" font-weight="600">⚡ Quick Actions</text>
  <rect x="1010" y="504" width="230" height="30" rx="4" fill="#3b82f6"/><text x="1125" y="524" text-anchor="middle" fill="#fff" font-size="12">Create Purchase Order</text>
  <rect x="1010" y="540" width="230" height="30" rx="4" fill="#6366f1"/><text x="1125" y="560" text-anchor="middle" fill="#fff" font-size="12">Ask AI Assistant</text>
</svg>