<svg xmlns="http://www.w3.org/2000/svg" viewBox="0 0 1280 720" font-family="Segoe UI, -apple-system, sans-serif">
  <rect width="1280" height="720" fill="#0f172a"/>
  <rect x="0" y="0" width="220" height="720" fill="#1e293b"/>
  <rect x="16" y="16" width="188" height="36" rx="6" fill="#3b82f6"/><text x="36" y="40" fill="#fff" font-size="14" font-weight="700">SCAI Platform</text>
  <rect x="16" y="100" width="188" height="32" rx="4" fill="transparent"/><text x="40" y="121" fill="#94a3b8" font-size="12">📊 Dashboard</text>
  <rect x="16" y="140" width="188" height="32" rx="4" fill="#3b82f6"/><text x="40" y="161" fill="#fff" font-size="12">📊 Inventory</text>
  <text x="260" y="52" fill="#f1f5f9" font-size="20" font-weight="700">Inventory Management</text>
  <rect x="250" y="80" width="230" height="100" rx="8" fill="#1e293b" stroke="#334155" stroke-width="1"/><text x="270" y="108" fill="#f1f5f9" font-size="13" font-weight="600">Total Items</text><text x="450" y="113" text-anchor="end" fill="#f1f5f9" font-size="28" font-weight="700">12,450</text><text x="270" y="140" fill="#64748b" font-size="11">Categories: 156</text><text x="270" y="160" fill="#64748b" font-size="11">Warehouses: 8</text>
  <rect x="500" y="80" width="230" height="100" rx="8" fill="#1e293b" stroke="#334155" stroke-width="1"/><text x="520" y="108" fill="#f1f5f9" font-size="13" font-weight="600">Stock Value</text><text x="700" y="113" text-anchor="end" fill="#f1f5f9" font-size="28" font-weight="700">$8.3M</text><text x="520" y="140" fill="#22c55e" font-size="11">▲ Turnover rate: 6.2</text><text x="520" y="160" fill="#64748b" font-size="11">Avg days in stock: 45</text>
  <rect x="750" y="80" width="230" height="100" rx="8" fill="#1e293b" stroke="#334155" stroke-width="1"/><text x="770" y="108" fill="#f1f5f9" font-size="13" font-weight="600">Low Stock Alerts</text><text x="950" y="113" text-anchor="end" fill="#f59e0b" font-size="28" font-weight="700">23</text><text x="770" y="140" fill="#f59e0b" font-size="11">⚠ Critical: 5 items</text><text x="770" y="160" fill="#f59e0b" font-size="11">⚠ Warning: 18 items</text>
  <rect x="250" y="200" width="780" height="36" rx="6" fill="#0f172a" stroke="#334155" stroke-width="1"/><text x="270" y="223" fill="#64748b" font-size="12">Search inventory items...</text>
  <rect x="1050" y="200" width="110" height="36" rx="6" fill="#3b82f6"/><text x="1105" y="223" text-anchor="middle" fill="#fff" font-size="13">+ Add Item</text>
  <rect x="1170" y="200" width="90" height="36" rx="6" fill="#6366f1"/><text x="1215" y="223" text-anchor="middle" fill="#fff" font-size="13">AI Optimize</text>
  <rect x="250" y="250" width="1010" height="200" rx="8" fill="#1e293b" stroke="#334155" stroke-width="1"/>
  <rect x="270" y="270" width="970" height="1" fill="#334155"/>
  <text x="280" y="300" fill="#f1f5f9" font-size="12" font-weight="600">SKU-001</text><text x="400" y="300" fill="#f1f5f9" font-size="12">Laptop Pro 15"</text><text x="580" y="300" fill="#22c55e" font-size="12">● In Stock</text><text x="700" y="300" fill="#f1f5f9" font-size="12">234 units</text><text x="850" y="300" fill="#f1f5f9" font-size="12">Electronics</text><text x="1000" y="300" fill="#f1f5f9" font-size="12">$1,299</text>
  <rect x="270" y="315" width="970" height="1" fill="#0f172a"/>
  <text x="280" y="345" fill="#f1f5f9" font-size="12">SKU-002</text><text x="400" y="345" fill="#f1f5f9" font-size="12">Steel Rods 12mm</text><text x="580" y="345" fill="#f59e0b" font-size="12">● Low Stock</text><text x="700" y="345" fill="#f59e0b" font-size="12">12 units</text><text x="850" y="345" fill="#f1f5f9" font-size="12">Raw Materials</text><text x="1000" y="345" fill="#f1f5f9" font-size="12">$45</text>
  <rect x="270" y="360" width="970" height="1" fill="#0f172a"/>
  <text x="280" y="390" fill="#f1f5f9" font-size="12">SKU-003</text><text x="400" y="390" fill="#f1f5f9" font-size="12">Packaging Box L</text><text x="580" y="390" fill="#22c55e" font-size="12">● In Stock</text><text x="700" y="390" fill="#f1f5f9" font-size="12">5,230 units</text><text x="850" y="390" fill="#f1f5f9" font-size="12">Packaging</text><text x="1000" y="390" fill="#f1f5f9" font-size="12">$2.50</text>
  <rect x="270" y="405" width="970" height="1" fill="#0f172a"/>
  <text x="280" y="435" fill="#f1f5f9" font-size="12">SKU-004</text><text x="400" y="435" fill="#f1f5f9" font-size="12">Microchip X1</text><text x="580" y="435" fill="#ef4444" font-size="12">● Out of Stock</text><text x="700" y="435" fill="#ef4444" font-size="12">0 units</text><text x="850" y="435" fill="#f1f5f9" font-size="12">Electronics</text><text x="1000" y="435" fill="#f1f5f9" font-size="12">$15.75</text>
  <rect x="250" y="470" width="1010" height="100" rx="8" fill="#1e293b" stroke="#6366f1" stroke-width="1"/>
  <text x="270" y="498" fill="#a78bfa" font-size="13" font-weight="600">🤖 AI Inventory Recommendations</text>
  <text x="270" y="525" fill="#64748b" font-size="12">• Reorder Steel Rods 12mm - current stock below minimum threshold (need 100 units)</text>
  <text x="270" y="545" fill="#64748b" font-size="12">• Microchip X1 - supplier TechCorp can expedite delivery within 48 hours</text>
  <text x="270" y="565" fill="#3b82f6" font-size="11">[Generate purchase orders for low stock items →]</text>
</svg>