<svg xmlns="http://www.w3.org/2000/svg" viewBox="0 0 1280 720" font-family="Segoe UI, -apple-system, sans-serif">
  <defs><linearGradient id="bg" x1="0%" y1="0%" x2="100%" y2="100%"><stop offset="0%" style="stop-color:#0f172a"/><stop offset="100%" style="stop-color:#1e293b"/></linearGradient></defs>
  <rect width="1280" height="720" fill="url(#bg)"/>
  <!-- Left panel -->
  <rect x="0" y="0" width="720" height="720" fill="#0f172a"/>
  <rect x="80" y="120" width="560" height="480" rx="12" fill="#1e293b" stroke="#334155" stroke-width="1"/>
  <text x="360" y="170" text-anchor="middle" fill="#3b82f6" font-size="28" font-weight="700">SupplyChain AI Platform</text>
  <text x="360" y="205" text-anchor="middle" fill="#64748b" font-size="14">Enterprise AI-Enhanced Supply Chain Management</text>
  <rect x="140" y="240" width="440" height="1" fill="#334155"/>
  <rect x="140" y="270" width="440" height="48" rx="6" fill="#0f172a" stroke="#334155" stroke-width="1"/>
  <text x="155" y="298" fill="#94a3b8" font-size="13">Email address</text>
  <rect x="140" y="330" width="440" height="48" rx="6" fill="#0f172a" stroke="#334155" stroke-width="1"/>
  <text x="155" y="358" fill="#94a3b8" font-size="13">Password</text>
  <rect x="140" y="400" width="440" height="48" rx="6" fill="#3b82f6"/>
  <text x="360" y="430" text-anchor="middle" fill="#fff" font-size="15" font-weight="600">Sign In</text>
  <text x="360" y="470" text-anchor="middle" fill="#64748b" font-size="12">Forgot password?</text>
  <rect x="140" y="496" width="440" height="1" fill="#334155"/>
  <text x="360" y="530" text-anchor="middle" fill="#64748b" font-size="12">Don't have an account? <tspan fill="#3b82f6">Sign up</tspan></text>
  <!-- Right decorative panel -->
  <rect x="720" y="0" width="560" height="720" fill="#0f172a"/>
  <rect x="760" y="100" width="460" height="520" rx="12" fill="#1e293b" stroke="#334155" stroke-width="1"/>
  <circle cx="990" cy="170" r="40" fill="#3b82f6" opacity="0.1"/>
  <circle cx="990" cy="170" r="24" fill="#3b82f6" opacity="0.2"/>
  <text x="990" y="176" text-anchor="middle" fill="#3b82f6" font-size="24">🔐</text>
  <text x="810" y="230" fill="#f1f5f9" font-size="18" font-weight="600" text-anchor="middle">Platform Highlights</text>
  <rect x="790" y="260" width="400" height="60" rx="6" fill="#0f172a" stroke="#334155" stroke-width="1"/>
  <text x="810" y="288" fill="#a78bfa" font-size="14">🤖 AI-Powered RAG Search</text>
  <text x="810" y="308" fill="#64748b" font-size="11">Semantic search across all supply chain documents</text>
  <rect x="790" y="330" width="400" height="60" rx="6" fill="#0f172a" stroke="#334155" stroke-width="1"/>
  <text x="810" y="358" fill="#a78bfa" font-size="14">🔗 MCP Agentic Workflows</text>
  <text x="810" y="378" fill="#64748b" font-size="11">Automated supply chain operations with AI agents</text>
  <rect x="790" y="400" width="400" height="60" rx="6" fill="#0f172a" stroke="#334155" stroke-width="1"/>
  <text x="810" y="428" fill="#a78bfa" font-size="14">📊 Smart Analytics Dashboard</text>
  <text x="810" y="448" fill="#64748b" font-size="11">Real-time KPIs and predictive insights</text>
  <rect x="790" y="470" width="400" height="60" rx="6" fill="#0f172a" stroke="#334155" stroke-width="1"/>
  <text x="810" y="498" fill="#a78bfa" font-size="14">⚡ Intelligent Automation</text>
  <text x="810" y="518" fill="#64748b" font-size="11">AI-driven PO generation and supplier management</text>
  <text x="990" y="585" text-anchor="middle" fill="#94a3b8" font-size="11">v1.0.0 · SupplyChain AI Platform</text>
</svg>