<svg xmlns="http://www.w3.org/2000/svg" viewBox="0 0 1280 720" font-family="Segoe UI, -apple-system, sans-serif">
  <rect width="1280" height="720" fill="#0f172a"/>
  <rect x="0" y="0" width="220" height="720" fill="#1e293b"/>
  <rect x="16" y="16" width="188" height="36" rx="6" fill="#3b82f6"/><text x="36" y="40" fill="#fff" font-size="14" font-weight="700">SCAI Platform</text>
  <rect x="16" y="140" width="188" height="32" rx="4" fill="#3b82f6"/><text x="40" y="161" fill="#fff" font-size="12">🚚 Shipments & Tracking</text>
  <text x="260" y="52" fill="#f1f5f9" font-size="20" font-weight="700">Shipments & Tracking</text>
  <rect x="250" y="80" width="300" height="100" rx="8" fill="#1e293b" stroke="#334155" stroke-width="1"/><text x="270" y="108" fill="#f1f5f9" font-size="13" font-weight="600">Active Shipments</text><text x="520" y="113" text-anchor="end" fill="#f1f5f9" font-size="28" font-weight="700">45</text><text x="270" y="140" fill="#64748b" font-size="11">In transit: 28</text><text x="270" y="160" fill="#64748b" font-size="11">Delivered today: 12</text>
  <rect x="570" y="80" width="300" height="100" rx="8" fill="#1e293b" stroke="#334155" stroke-width="1"/><text x="590" y="108" fill="#f1f5f9" font-size="13" font-weight="600">On-Time Delivery</text><text x="840" y="113" text-anchor="end" fill="#22c55e" font-size="28" font-weight="700">94.2%</text><text x="590" y="140" fill="#64748b" font-size="11">vs target: 95%</text><text x="590" y="160" fill="#64748b" font-size="11">Avg delay: 1.2 days</text>
  <rect x="890" y="80" width="370" height="100" rx="8" fill="#1e293b" stroke="#334155" stroke-width="1"/><text x="910" y="108" fill="#f1f5f9" font-size="13" font-weight="600">AI Route Optimization</text><text x="910" y="140" fill="#a78bfa" font-size="12">🚀 3 routes optimized today</text><text x="910" y="160" fill="#22c55e" font-size="12">💰 Saved $2,450 in fuel costs</text>
  <rect x="250" y="200" width="1010" height="1" fill="#334155"/>
  <rect x="250" y="220" width="1010" height="180" rx="8" fill="#1e293b" stroke="#334155" stroke-width="1"/>
  <text x="270" y="248" fill="#f1f5f9" font-size="14" font-weight="600">Active Shipments</text>
  <rect x="270" y="260" width="970" height="1" fill="#334155"/>
  <text x="280" y="288" fill="#f1f5f9" font-size="12" font-weight="600">SHP-2024-001</text><text x="440" y="288" fill="#f1f5f9" font-size="12">New York, USA</text><text x="620" y="288" fill="#3b82f6" font-size="12">● In Transit</text><text x="780" y="288" fill="#f1f5f9" font-size="12">Est: Jun 25</text><text x="920" y="288" fill="#f1f5f9" font-size="12">FedEx</text>
  <rect x="270" y="303" width="970" height="1" fill="#0f172a"/>
  <text x="280" y="333" fill="#f1f5f9" font-size="12">SHP-2024-002</text><text x="440" y="333" fill="#f1f5f9" font-size="12">Los Angeles, CA</text><text x="620" y="333" fill="#22c55e" font-size="12">● Delivered</text><text x="780" y="333" fill="#f1f5f9" font-size="12">Jun 21</text><text x="920" y="333" fill="#f1f5f9" font-size="12">UPS</text>
  <rect x="270" y="348" width="970" height="1" fill="#0f172a"/>
  <text x="280" y="378" fill="#f1f5f9" font-size="12">SHP-2024-003</text><text x="440" y="378" fill="#f1f5f9" font-size="12">Chicago, IL</text><text x="620" y="378" fill="#f59e0b" font-size="12">● Processing</text><text x="780" y="378" fill="#f1f5f9" font-size="12">Est: Jun 23</text><text x="920" y="378" fill="#f1f5f9" font-size="12">DHL</text>
  <!-- Map placeholder -->
  <rect x="250" y="420" width="500" height="180" rx="8" fill="#1e293b" stroke="#334155" stroke-width="1"/>
  <text x="500" y="510" text-anchor="middle" fill="#64748b" font-size="14">🗺 Live Tracking Map</text>
  <text x="500" y="535" text-anchor="middle" fill="#94a3b8" font-size="12">4 active shipments on route</text>
  <rect x="500" y="550" width="60" height="6" rx="3" fill="#3b82f6"/>
  <!-- AI insights -->
  <rect x="770" y="420" width="490" height="180" rx="8" fill="#1e293b" stroke="#6366f1" stroke-width="1"/>
  <text x="790" y="448" fill="#a78bfa" font-size="13" font-weight="600">🤖 AI Shipping Insights</text>
  <text x="790" y="478" fill="#64748b" font-size="12">• Weather delay detected for SHP-2024-001 - rerouting suggested</text>
  <text x="790" y="498" fill="#64748b" font-size="12">• Optimal carrier for Chicago route: DHL (saves $120)</text>
  <text x="790" y="518" fill="#64748b" font-size="12">• 3 shipments eligible for consolidated shipping</text>
  <text x="790" y="538" fill="#64748b" font-size="12">• Carbon footprint report available for Q2</text>
  <text x="790" y="570" fill="#3b82f6" font-size="11">[View full AI analysis →]</text>
</svg>