<svg xmlns="http://www.w3.org/2000/svg" viewBox="0 0 1280 720" font-family="Segoe UI, -apple-system, sans-serif">
  <defs><linearGradient id="bg" x1="0%" y1="0%" x2="100%" y2="100%"><stop offset="0%" style="stop-color:#0f172a"/><stop offset="100%" style="stop-color:#1e293b"/></linearGradient></defs>
  <rect width="1280" height="720" fill="url(#bg)"/>
  <rect x="0" y="0" width="220" height="720" fill="#1e293b"/>
  <rect x="16" y="16" width="188" height="36" rx="6" fill="#3b82f6"/><text x="36" y="40" fill="#fff" font-size="14" font-weight="700">SCAI Platform</text>
  <rect x="16" y="100" width="188" height="32" rx="4" fill="transparent"/><text x="40" y="121" fill="#94a3b8" font-size="12">📊 Dashboard</text>
  <rect x="16" y="140" width="188" height="32" rx="4" fill="#3b82f6"/><text x="40" y="161" fill="#fff" font-size="12">🏭 Suppliers</text>
  <rect x="230" y="20" fill="#f1f5f9" font-size="20" font-weight="700">Supplier Management</text>
  <rect x="240" y="20" width="1020" height="56" fill="#1e293b"/>
  <text x="260" y="52" fill="#f1f5f9" font-size="20" font-weight="700">Supplier Management</text>
  <rect x="250" y="80" width="230" height="100" rx="8" fill="#1e293b" stroke="#334155" stroke-width="1"/><text x="270" y="108" fill="#f1f5f9" font-size="13" font-weight="600">Total Suppliers</text><text x="450" y="113" text-anchor="end" fill="#f1f5f9" font-size="28" font-weight="700">89</text><text x="270" y="140" fill="#64748b" font-size="11">Active contracts: 72</text><text x="270" y="160" fill="#64748b" font-size="11">Pending: 12</text>
  <rect x="500" y="80" width="230" height="100" rx="8" fill="#1e293b" stroke="#334155" stroke-width="1"/><text x="520" y="108" fill="#f1f5f9" font-size="13" font-weight="600">Avg Rating</text><text x="700" y="113" text-anchor="end" fill="#f1f5f9" font-size="28" font-weight="700">4.2</text><text x="520" y="140" fill="#64748b" font-size="11">⭐ Top performers: 45</text><text x="520" y="160" fill="#64748b" font-size="11">Needs improvement: 8</text>
  <rect x="750" y="80" width="230" height="100" rx="8" fill="#1e293b" stroke="#334155" stroke-width="1"/><text x="770" y="108" fill="#f1f5f9" font-size="13" font-weight="600">Spend This Year</text><text x="950" y="113" text-anchor="end" fill="#f1f5f9" font-size="28" font-weight="700">$4.2M</text><text x="770" y="140" fill="#64748b" font-size="11">vs last year: +15%</text><text x="770" y="160" fill="#64748b" font-size="11">Projected: $5.8M</text>
  <rect x="240" y="200" width="1020" height="1" fill="#334155"/>
  <rect x="250" y="220" width="490" height="36" rx="6" fill="#0f172a" stroke="#334155" stroke-width="1"/><text x="270" y="243" fill="#64748b" font-size="12">Search suppliers...</text>
  <rect x="770" y="220" width="110" height="36" rx="6" fill="#3b82f6"/><text x="825" y="243" text-anchor="middle" fill="#fff" font-size="13">+ Add Supplier</text>
  <rect x="895" y="220" width="110" height="36" rx="6" fill="#6366f1"/><text x="950" y="243" text-anchor="middle" fill="#fff" font-size="13">AI Analyze</text>
  <rect x="260" y="270" width="980" height="1" fill="#334155"/>
  <!-- Supplier rows -->
  <text x="260" y="305" fill="#f1f5f9" font-size="13" font-weight="600">TechCorp Inc.</text><text x="520" y="305" fill="#64748b" font-size="12">Electronics</text><text x="680" y="305" fill="#22c55e" font-size="12">● Active</text><text x="840" y="305" fill="#f1f5f9" font-size="12">$1.2M</text><text x="960" y="305" fill="#f59e0b" font-size="12">★★★★☆</text><rect x="1100" y="292" width="70" height="24" rx="4" fill="#3b82f6"/><text x="1135" y="309" text-anchor="middle" fill="#fff" font-size="11">View</text>
  <rect x="260" y="320" width="980" height="1" fill="#1e293b"/>
  <text x="260" y="355" fill="#f1f5f9" font-size="13">Global Logistics Co.</text><text x="520" y="355" fill="#64748b" font-size="12">Logistics</text><text x="680" y="355" fill="#22c55e" font-size="12">● Active</text><text x="840" y="355" fill="#f1f5f9" font-size="12">$890K</text><text x="960" y="355" fill="#f59e0b" font-size="12">★★★★★</text><rect x="1100" y="342" width="70" height="24" rx="4" fill="#3b82f6"/><text x="1135" y="359" text-anchor="middle" fill="#fff" font-size="11">View</text>
  <rect x="260" y="370" width="980" height="1" fill="#1e293b"/>
  <text x="260" y="405" fill="#f1f5f9" font-size="13">RawMats Ltd.</text><text x="520" y="405" fill="#64748b" font-size="12">Raw Materials</text><text x="680" y="405" fill="#f59e0b" font-size="12">● Pending</text><text x="840" y="405" fill="#f1f5f9" font-size="12">-$</text><text x="960" y="405" fill="#94a3b8" font-size="12">☆☆☆☆☆</text><rect x="1100" y="392" width="70" height="24" rx="4" fill="#3b82f6"/><text x="1135" y="409" text-anchor="middle" fill="#fff" font-size="11">View</text>
  <rect x="260" y="430" width="980" height="1" fill="#334155"/>
  <!-- AI Supplier Insights -->
  <rect x="250" y="460" width="490" height="130" rx="8" fill="#1e293b" stroke="#6366f1" stroke-width="1"/>
  <text x="270" y="488" fill="#a78bfa" font-size="13" font-weight="600">🤖 AI Supplier Insights</text>
  <text x="270" y="515" fill="#64748b" font-size="12">• TechCorp Inc. shows 95% on-time delivery rate</text>
  <text x="270" y="535" fill="#64748b" font-size="12">• 3 suppliers need contract renewal this quarter</text>
  <text x="270" y="555" fill="#64748b" font-size="12">• Potential risk detected at Global Logistics Co.</text>
  <text x="270" y="575" fill="#3b82f6" font-size="11">[Run full AI analysis →]</text>
  <!-- Top Suppliers table -->
  <rect x="760" y="460" width="490" height="130" rx="8" fill="#1e293b" stroke="#334155" stroke-width="1"/>
  <text x="780" y="488" fill="#f1f5f9" font-size="13" font-weight="600">Top Suppliers by Performance</text>
  <text x="780" y="515" fill="#f1f5f9" font-size="12">1. Global Logistics Co. <tspan fill="#22c55e">★★★★★</tspan></text>
  <text x="780" y="540" fill="#f1f5f9" font-size="12">2. TechCorp Inc. <tspan fill="#f59e0b">★★★★☆</tspan></text>
  <text x="780" y="565" fill="#f1f5f9" font-size="12">3. Precision Parts LLC <tspan fill="#f59e0b">★★★★☆</tspan></text>
</svg>